PathFileType	4	(X/Y/Z)	C:/Users/beibeiliu/ov580/test_trc/User3\sequence.36_training_dense_right.trc
DataRate	CameraRate	NumFrames	NumMarkers	Units	OrigDataRate	OrigDataStartFrame	OrigNumFrames
120	120	20	19	mm	120	32	252
Frame#	Time	ThumbCMC			ThumbMCP			ThumbIP			ThumbTip			IndexMCP			IndexPIP			IndexTip			MiddleMCP			MiddlePIP			MiddleTip			RingMCP			RingPIP			RingTip			PinkyMCP			PinkyPIP			PinkyTip			BackHand1			BackHand2			BackHand3	
		X0	Y0	Z0	X1	Y1	Z1	X2	Y2	Z2	X3	Y3	Z3	X4	Y4	Z4	X5	Y5	Z5	X6	Y6	Z6	X7	Y7	Z7	X8	Y8	Z8	X9	Y9	Z9	X10	Y10	Z10	X11	Y11	Z11	X12	Y12	Z12	X13	Y13	Z13	X14	Y14	Z14	X15	Y15	Z15	X16	Y16	Z16	X17	Y17	Z17	X18	Y18	Z18	
31	0.258333	126.928	-9.26364	24.166	110.59	12.8427	1.81283	96.6724	27.3113	-15.7515	74.5644	33.6398	-30.2972	99.9913	-28.7222	-43.7787	85.5083	-14.224	-70.4508	64.0416	3.94922	-77.8206	75.8934	-47.3005	-43.4599	53.5712	-35.5866	-61.4785	29.1285	-5.79086	-65.6606	57.8643	-43.3603	-24.8815	37.0704	-21.1683	-23.2497	40.9163	0.493291	-1.87553	49.0598	-51.8546	-3.04414	36.3464	-28.1378	-3.85128	49.1122	-9.33407	15.3527	97.6594	-65.1242	12.3756	113.673	-68.85	40.6132	125.429	-47.6847	16.7022	
32	0.266667	124.893	-2.92978	26.5636	103.671	14.4306	1.17799	88.9645	27.6116	-20.1611	67.6977	27.9503	-34.8644	107.892	-27.1193	-45.0263	93.3071	-12.4439	-74.2586	72.9943	0.39812	-82.1639	88.7892	-48.2043	-44.3814	66.679	-38.1266	-69.5126	35.8676	-19.8464	-73.0529	67.6075	-50.3577	-29.1165	43.4659	-30.8834	-32.7172	39.7447	-10.4264	-4.85276	59.5659	-59.3917	-9.863	37.9048	-39.6642	-9.17652	51.2952	-19.4372	12.047	105.497	-68.0256	11.9428	114.286	-68.4806	39.7008	128.761	-43.4894	14.2023	
33	0.275	113.396	-1.17365	26.3105	92.1017	12.0095	5.45794	74.9129	21.2422	-17.4009	56.8574	19.4282	-39.2106	114.119	-19.9958	-50.4301	100.313	-14.0376	-75.2089	74.2807	-7.9773	-86.5207	100.504	-50.5348	-47.1814	81.1255	-44.8642	-75.2225	49.3245	-32.1573	-82.3981	77.3229	-57.6879	-37.2277	50.5897	-46.3901	-39.5279	40.1229	-31.4784	-13.5611	70.7207	-68.9079	-19.1719	47.1633	-54.3297	-17.8192	51.2285	-34.8106	9.71892	119.325	-65.1345	8.02332	125.064	-63.0569	35.0368	134.132	-31.2991	17.5106	
34	0.283333	101.737	-5.48342	24.2762	77.5961	2.12744	1.43678	61.7861	3.52488	-17.4172	44.3894	1.71183	-40.9005	113.4	-21.03	-49.0404	97.9522	-12.7227	-79.121	74.1173	-14.6562	-89.1518	112.052	-43.1991	-55.5116	93.689	-46.7098	-78.8933	55.1829	-46.7633	-85.5744	92.9741	-61.1508	-41.3109	64.2053	-61.936	-44.9538	47.3449	-47.4528	-15.933	87.4681	-77.0147	-24.7391	60.8228	-70.7757	-21.665	59.9853	-53.3156	2.49839	128.631	-61.0145	7.2668	133.807	-57.5571	36.2729	132.207	-25.3222	14.8403	
35	0.291667	92.0377	-11.7046	28.7873	66.2767	-11.3972	1.25149	47.6229	-10.8284	-18.1049	37.5726	-22.3793	-37.9465	107.044	-13.8463	-51.2247	94.1399	-18.4983	-75.6331	67.7828	-23.5066	-88.4602	114.766	-41.3382	-57.6989	96.0074	-49.5094	-81.3662	62.7888	-63.418	-84.8242	103.257	-66.4353	-42.0279	70.8506	-72.0923	-45.9869	55.7989	-70.4844	-14.5056	100.573	-80.9829	-29.7999	76.8672	-83.321	-25.6491	71.2076	-69.9612	2.44675	137.177	-49.3752	3.5033	141.059	-50.2403	36.3165	128.858	-21.5632	16.1012	
36	0.3	83.8006	-17.928	28.4765	59.5352	-23.6745	10.3595	38.2665	-26.4501	-15.7913	27.9467	-38.4576	-32.018	96.0876	-20.7515	-47.7183	78.9289	-22.3264	-73.3898	58.4006	-39.7174	-83.3524	104.564	-40.2167	-55.4871	88.3274	-55.3777	-76.259	54.1884	-75.9078	-76.1545	102.617	-67.6584	-39.9656	74.0107	-84.4284	-38.8613	62.0703	-82.5177	-8.57776	109.304	-85.0613	-24.5724	79.9798	-93.2998	-16.4063	75.521	-81.552	5.7335	133.888	-45.3112	3.33036	140.752	-42.0995	29.9701	120.544	-18.1059	19.4954	
37	0.308333	80.6662	-21.4296	37.4896	52.3045	-27.4109	19.3725	29.2758	-34.863	-4.40683	19.5889	-50.2675	-19.7084	81.2807	-29.3013	-41.3084	65.2591	-36.9865	-66.2751	38.4045	-52.5512	-72.9332	92.4009	-51.3097	-50.1608	73.0862	-71.0382	-66.3315	44.3522	-94.0752	-55.984	95.3668	-75.0071	-33.5255	68.0488	-93.86	-25.2651	60.2304	-88.8499	3.84171	103.35	-91.5553	-18.0491	78.687	-99.3372	-4.67199	77.1776	-82.425	19.3235	131.203	-45.3049	4.09223	141.279	-41.8926	28.8201	112.752	-19.4073	14.6752	
38	0.316667	79.2157	-18.4308	42.3836	49.8108	-27.9328	28.5718	24.7516	-38.2935	10.133	12.8909	-55.1542	0.632668	66.3237	-39.6554	-37.0092	44.3746	-49.2186	-54.7295	21.3417	-68.7447	-53.5242	79.1979	-64.6439	-38.7454	53.4244	-81.5197	-48.7855	25.4663	-102.36	-29.436	79.4887	-83.5768	-21.9075	60.3892	-101.024	-9.07768	55.3001	-89.5534	23.0208	95.5024	-95.2109	-5.71546	74.7099	-105.104	9.32164	73.0737	-85.3352	31.2662	122.98	-49.6133	6.49266	135.593	-40.123	28.4477	109.712	-20.8483	15.4065	
39	0.325	76.8668	-12.8096	45.41	46.6017	-27.74	33.5509	23.9054	-41.2011	23.1324	10.1414	-58.4056	18.9184	57.1485	-43.5497	-22.6618	31.8935	-55.118	-39.2192	6.36247	-72.7796	-32.9348	63.0391	-70.7691	-28.0189	37.1833	-92.2445	-27.7939	15.7781	-105.517	-0.0413213	69.7585	-91.9635	-6.16378	48.7178	-100.933	12.7262	51.6543	-84.1213	42.2403	83.4884	-97.4104	7.29775	64.4265	-103.025	28.8012	70.968	-79.5574	47.5938	118.684	-56.9877	9.27957	135.944	-44.5117	32.4397	105.864	-22.3339	15.9136	
40	0.333333	77.517	-11.2406	43.7942	47.215	-23.4649	42.7121	20.7569	-37.159	37.4772	9.05902	-59.174	33.7543	49.3273	-48.709	-15.5729	23.0218	-64.0423	-23.7461	-3.90629	-77.9808	-9.71961	56.7003	-78.5256	-13.3098	28.3118	-91.605	-9.62652	6.89015	-99.3324	23.1114	65.2928	-92.6811	9.96054	41.7074	-98.0391	30.6628	47.9592	-81.2206	58.2543	77.0406	-102.451	24.5068	58.9625	-99.4042	47.02	68.5374	-75.6661	61.7103	111.735	-59.8278	13.6385	133.808	-46.7271	31.5418	105.234	-28.1952	19.008	
41	0.341667	78.9954	-9.50073	44.9114	46.261	-17.1344	49.3755	20.6456	-36.4886	46.4737	6.83628	-59.5088	48.4449	40.6831	-50.5947	-7.59204	12.3572	-65.6086	-8.62715	-9.87204	-72.5693	8.58857	43.8806	-79.3136	-2.39156	19.0407	-93.2198	10.0995	4.01537	-92.48	45.8189	54.5336	-92.4791	22.3709	35.5709	-92.9583	43.2142	47.2346	-70.8037	70.7855	72.3969	-99.2289	36.2679	53.0971	-89.3265	58.4318	66.4046	-69.484	71.2169	109.492	-61.7401	17.5232	127.491	-49.2878	32.6011	101.257	-25.6062	18.4537	
42	0.35	77.3668	-7.85667	43.9674	46.2469	-15.2133	53.0118	17.6689	-33.1302	55.0097	5.42985	-57.298	59.2207	32.0626	-56.0142	1.26771	6.91239	-66.4887	5.64047	-12.8539	-70.9852	27.9328	37.0715	-80.4345	8.76038	13.7827	-89.6305	22.7211	0.783002	-83.4843	59.5853	48.7095	-85.4313	29.2574	31.9391	-86.9476	55.6761	40.2399	-65.4297	76.6986	66.8128	-96.1601	44.0659	51.7051	-88.6423	67.0396	65.0154	-61.3215	77.0414	103.26	-60.6862	18.408	124.249	-49.079	30.1236	94.2967	-26.9875	16.0752	
43	0.358333	74.0295	-1.29095	43.1963	45.0679	-12.7285	53.9839	18.9454	-27.7737	59.6105	7.33444	-48.8242	64.9843	29.5743	-50.5676	6.66978	-4.47366	-61.0945	15.5081	-17.9143	-63.1934	38.6374	33.406	-71.7656	13.5787	4.30398	-80.0203	30.5044	-2.90313	-73.3205	65.3382	44.3564	-81.7914	31.1095	27.2147	-79.7361	60.7722	41.0795	-61.8592	81.6484	59.557	-92.1849	46.0014	46.8528	-80.7751	67.9458	62.7631	-57.2484	77.4963	96.7888	-57.1896	17.0282	119.636	-45.7082	25.0436	93.8458	-25.0755	16.0932	
44	0.366667	73.3678	-0.944373	39.6804	45.0521	-5.95713	51.0403	18.2401	-19.7801	57.3148	3.09428	-40.2222	63.0345	21.1722	-43.7673	2.32416	-5.39688	-51.7319	10.9154	-20.0149	-57.6485	38.6515	25.2815	-64.2202	9.9311	0.550331	-73.9634	29.0364	-6.15672	-63.9656	64.3375	35.9824	-75.8458	29.6689	21.2045	-72.5985	57.1175	36.3574	-54.8309	77.3626	53.6017	-81.5185	39.8389	42.5339	-74.8309	65.2355	56.0456	-51.2649	70.9686	89.8545	-55.4695	10.7635	118.54	-41.1455	23.5532	90.5457	-17.9524	11.5022	
45	0.375	75.406	7.51667	33.7716	42.3317	2.90746	40.9868	13.2195	-5.71435	43.6114	-5.15782	-25.6354	47.2141	29.8422	-30.6339	-10.5229	-3.11423	-37.7102	-9.21072	-24.2704	-42.8731	14.9881	27.0747	-50.5967	-7.54674	-1.53065	-58.706	3.9135	-11.0891	-54.6823	42.6071	37.2272	-62.5396	11.8234	15.4162	-64.3229	37.8831	27.202	-47.3015	62.3534	48.9713	-77.2645	26.2729	34.1764	-70.3271	45.2069	51.2322	-49.3296	63.4339	90.4586	-43.784	5.19562	120.314	-37.8222	17.6825	89.7636	-8.83258	3.66232	
46	0.383333	78.4276	18.2618	24.3527	47.6416	13.3514	24.1478	14.5955	10.4588	18.9971	-1.52979	-3.34713	18.5824	43.2408	-12.1199	-34.9482	15.5458	-23.1558	-45.7945	-14.4079	-29.7359	-33.014	42.8641	-37.9695	-34.1005	9.68365	-46.0453	-34.9992	-10.3216	-44.7804	-3.14633	44.4636	-51.3226	-15.5058	14.824	-55.6238	0.480702	17.7941	-41.3929	29.7732	52.4286	-70.4395	0.407842	30.0782	-65.2618	18.8165	37.4114	-44.8034	34.7283	95.0136	-41.1482	-4.50021	120.094	-33.9942	11.5396	100.323	-4.53172	-2.2454	
47	0.391667	85.9858	22.4423	14.7669	52.3744	26.0824	4.42674	26.0463	29.6604	-6.96166	5.95479	17.039	-17.7827	68.1493	3.54619	-56.0217	48.2084	-6.30351	-81.1601	20.4696	-6.46139	-88.1808	69.2318	-26.8905	-61.2974	39.3191	-32.7806	-78.4798	4.99134	-32.7243	-62.3658	64.0774	-41.7864	-44.0639	30.382	-50.4115	-44.8772	16.1684	-39.6035	-20.362	67.4589	-59.2479	-27.1996	40.6943	-59.6778	-28.7808	28.4335	-45.2143	-7.19914	107.959	-32.1362	-13.2986	125.959	-25.1774	10.3133	111.899	4.59466	-5.91318	
48	0.4	85.8266	29.6755	1.51613	57.8561	33.3106	-12.9875	34.0524	39.0892	-32.4392	17.0221	37.2306	-43.1273	91.006	12.7116	-76.8256	83.1473	16.8234	-100.364	65.6604	10.7598	-121.284	96.2692	-14.0867	-79.1228	81.1419	-15.4894	-107.274	45.4743	-20.984	-118.301	86.6627	-29.8652	-68.2377	63.4481	-39.7331	-85.2864	28.8169	-38.3614	-70.6543	85.7395	-51.0602	-47.2581	62.8385	-60.7141	-62.105	38.3847	-48.9148	-55.0134	115.731	-24.7638	-21.084	127.462	-23.1744	2.08855	117.764	10.6198	-13.7614	
49	0.408333	87.9063	30.6672	-11.2866	61.3496	35.7936	-32.6138	41.5159	44.658	-46.2143	24.996	46.16	-63.2287	104.098	20.794	-83.137	101.607	25.4311	-114.182	95.0406	25.8472	-138.781	112.465	-0.356653	-85.7656	107.709	-7.22911	-121.277	87.8173	-9.1767	-145.418	103.087	-27.1883	-81.3754	87.0537	-30.9776	-104.58	53.1	-38.0481	-110.076	100.162	-42.6456	-61.5457	83.549	-55.976	-81.0416	59.2127	-53.5389	-88.0202	123.853	-18.7372	-32.2146	128.921	-15.5589	-4.65825	123.289	15.5025	-20.271	
50	0.416667	88.2618	36.8557	-16.9223	64.2991	41.4122	-34.6409	47.1104	48.5765	-52.4068	31.1727	54.5802	-70.1308	110.117	28.5986	-88.5042	108.793	33.6991	-114.19	107.684	34.889	-137.271	119.6	3.4528	-94.9232	116.708	2.77438	-120.349	108.592	-5.88986	-151.427	110.066	-24.3823	-85.0185	96.6282	-30.1565	-107.792	67.8429	-40.1048	-122.174	106.439	-40.7699	-68.0195	93.8096	-48.6283	-88.603	70.3683	-58.2567	-96.7715	128.739	-11.5521	-38.0796	134.455	-10.9588	-8.45417	124.926	18.2036	-21.7794	
